# xmcd
#
# Track frame offsets:
#	151
#	14596
#	26836
#	43896
#	55774
#	65585
#	76405
#	92402
#	101942
#	114046
#	123398
#	131808
#	145734
#	159393
#	172981
#	186361
#	201575
#	216351
#	221930
#	233130
#	244274
#	252528
#	272363
#	277077
#	282133
#
# Disc length: 4020 seconds
#
# Revision: 0
# Processed by: cddbd v1.5.2PL0 Copyright (c) Steve Scherf et al.
# Submitted via: audiograbber 1.83.01
#
DISCID=840fb219
DTITLE=MS® - Ultra-Mix
DYEAR=2006
DGENRE=Dance
TTITLE0=JDS vs MiHell - Purple Funky Monkey
TTITLE1=Mark Simmons - All To You
TTITLE2=Virtualmismo - Mismo Plastico
TTITLE3=Steff and Kaen - Soaking Wet Clubbeats
TTITLE4=Randy Katana - Fancy Fear
TTITLE5=Santos - Tzumbae
TTITLE6=O-Zone - Dragostea Din Tei
TTITLE7=Floorfilla - Kosmik Love
TTITLE8=Mareen vs Da Freaks - Love Spy Reloaded
TTITLE9=Buse - Love 2 Nite
TTITLE10=Floorfilla - Sex Is Danger
TTITLE11=Paul Van Dyk - The Other Side
TTITLE12=4 Strings - Turn It Around
TTITLE13=Van Buren vs DJ Tiesto - Eternity
TTITLE14=KMC - Get Better
TTITLE15=Kandy Katana - In Silence
TTITLE16=St Tropez Caps - Like a Storm
TTITLE17=Astrix - On Fire
TTITLE18=1200 Micrograms - Mescalina
TTITLE19=Gataka vs Patrick - Disco Jockey
TTITLE20=Benni Benassi - Satisfaction
TTITLE21=Bizarre Contact - Horizon
TTITLE22=Eskimo - The Popcorn
TTITLE23=Gataka vs Visual Paradox - Congos Bongos
TTITLE24=Gataka - Acid Music
EXTD=
EXTT0=
EXTT1=
EXTT2=
EXTT3=
EXTT4=
EXTT5=
EXTT6=
EXTT7=
EXTT8=
EXTT9=
EXTT10=
EXTT11=
EXTT12=
EXTT13=
EXTT14=
EXTT15=
EXTT16=
EXTT17=
EXTT18=
EXTT19=
EXTT20=
EXTT21=
EXTT22=
EXTT23=
EXTT24=
PLAYORDER=
